# Blender 4.3.0
# www.blender.org
o arc
v 1.614600 -1.180300 0.000000
v 1.503900 -1.318400 0.000000
v 1.381400 -1.446300 0.000000
v 1.248100 -1.562700 0.000000
v 1.105100 -1.667000 0.000000
v 0.953300 -1.758200 0.000000
v 0.794100 -1.835600 0.000000
v 0.628700 -1.898600 0.000000
v 0.458400 -1.946800 0.000000
v 0.284400 -1.979700 0.000000
v 0.108300 -1.997100 0.000000
v -0.068700 -1.998800 0.000000
v -0.245200 -1.984900 0.000000
v -0.419800 -1.955500 0.000000
v -0.591000 -1.910700 0.000000
v -0.757700 -1.850900 0.000000
v -0.918400 -1.776700 0.000000
v -1.071900 -1.688500 0.000000
v -1.217000 -1.587100 0.000000
v -1.352600 -1.473300 0.000000
v -1.477500 -1.347900 0.000000
v -1.590900 -1.212000 0.000000
v -1.691900 -1.066600 0.000000
v -1.779600 -0.912800 0.000000
v -1.853300 -0.751900 0.000000
v -1.912500 -0.585000 0.000000
v -1.956800 -0.413600 0.000000
v -1.985700 -0.239000 0.000000
v -1.999000 -0.062500 0.000000
v -2.114600 0.000000 0.000000
v -2.291700 0.000000 0.000000
v -2.468800 0.000000 0.000000
v -2.645800 0.000000 0.000000
v -2.822900 0.000000 0.000000
v -3.000000 0.000000 0.000000
v -2.994800 -0.177000 0.000000
v -2.979100 -0.353300 0.000000
v -2.953100 -0.528500 0.000000
v -2.916800 -0.701800 0.000000
v -2.870300 -0.872600 0.000000
v -2.813800 -1.040400 0.000000
v -2.747500 -1.204600 0.000000
v -2.671700 -1.364600 0.000000
v -2.586500 -1.519800 0.000000
v -2.492400 -1.669700 0.000000
v -2.389500 -1.813900 0.000000
v -2.278400 -1.951700 0.000000
v -2.159300 -2.082700 0.000000
v -2.032600 -2.206400 0.000000
v -1.898900 -2.322500 0.000000
v -1.758600 -2.430500 0.000000
v -1.612200 -2.530000 0.000000
v -1.460100 -2.620700 0.000000
v -1.303000 -2.702300 0.000000
v -1.141300 -2.774400 0.000000
v -0.975600 -2.836900 0.000000
v -0.806600 -2.889500 0.000000
v -0.634700 -2.932100 0.000000
v -0.460600 -2.964400 0.000000
v -0.285000 -2.986400 0.000000
v -0.108300 -2.998000 0.000000
v 0.068800 -2.999200 0.000000
v 0.245600 -2.989900 0.000000
v 0.421500 -2.970200 0.000000
v 0.596000 -2.940200 0.000000
v 0.768400 -2.899900 0.000000
v 0.938200 -2.849500 0.000000
v 1.104600 -2.789200 0.000000
v 1.267200 -2.719200 0.000000
v 1.425400 -2.639700 0.000000
v 1.578700 -2.551000 0.000000
v 1.726400 -2.453500 0.000000
v 1.868200 -2.347300 0.000000
v 2.003400 -2.233000 0.000000
v 2.131600 -2.111000 0.000000
v 2.252400 -1.981500 0.000000
v 2.365400 -1.845200 0.000000
v 2.470100 -1.702500 0.000000
v 2.566300 -1.553800 0.000000
v 2.653500 -1.399700 0.000000
v 2.731400 -1.240700 0.000000
v 2.799900 -1.077400 0.000000
v 2.858500 -0.910400 0.000000
v 2.907300 -0.740200 0.000000
v 2.945900 -0.567400 0.000000
v 2.974200 -0.392600 0.000000
v 2.992200 -0.216400 0.000000
v 2.999700 -0.039600 0.000000
v 2.862500 0.000000 0.000000
v 2.685400 0.000000 0.000000
v 2.508300 0.000000 0.000000
v 2.331200 0.000000 0.000000
v 2.154200 0.000000 0.000000
v 1.999900 -0.022900 0.000000
v 1.990000 -0.199700 0.000000
v 1.964600 -0.374800 0.000000
v 1.923700 -0.547100 0.000000
v 1.867800 -0.715100 0.000000
v 1.797300 -0.877400 0.000000
v 1.712600 -1.032900 0.000000
v 1.614600 -1.180300 1.000000
v 1.503900 -1.318400 1.000000
v 1.381400 -1.446300 1.000000
v 1.248100 -1.562700 1.000000
v 1.105100 -1.667000 1.000000
v 0.953300 -1.758200 1.000000
v 0.794100 -1.835600 1.000000
v 0.628700 -1.898600 1.000000
v 0.458400 -1.946800 1.000000
v 0.284400 -1.979700 1.000000
v 0.108300 -1.997100 1.000000
v -0.068700 -1.998800 1.000000
v -0.245200 -1.984900 1.000000
v -0.419800 -1.955500 1.000000
v -0.591000 -1.910700 1.000000
v -0.757700 -1.850900 1.000000
v -0.918400 -1.776700 1.000000
v -1.071900 -1.688500 1.000000
v -1.217000 -1.587100 1.000000
v -1.352600 -1.473300 1.000000
v -1.477500 -1.347900 1.000000
v -1.590900 -1.212000 1.000000
v -1.691900 -1.066600 1.000000
v -1.779600 -0.912800 1.000000
v -1.853300 -0.751900 1.000000
v -1.912500 -0.585000 1.000000
v -1.956800 -0.413600 1.000000
v -1.985700 -0.239000 1.000000
v -1.999000 -0.062500 1.000000
v -2.114600 0.000000 1.000000
v -2.291700 0.000000 1.000000
v -2.468800 0.000000 1.000000
v -2.645800 0.000000 1.000000
v -2.822900 0.000000 1.000000
v -3.000000 0.000000 1.000000
v -2.994800 -0.177000 1.000000
v -2.979100 -0.353300 1.000000
v -2.953100 -0.528500 1.000000
v -2.916800 -0.701800 1.000000
v -2.870300 -0.872600 1.000000
v -2.813800 -1.040400 1.000000
v -2.747500 -1.204600 1.000000
v -2.671700 -1.364600 1.000000
v -2.586500 -1.519800 1.000000
v -2.492400 -1.669700 1.000000
v -2.389500 -1.813900 1.000000
v -2.278400 -1.951700 1.000000
v -2.159300 -2.082700 1.000000
v -2.032600 -2.206400 1.000000
v -1.898900 -2.322500 1.000000
v -1.758600 -2.430500 1.000000
v -1.612200 -2.530000 1.000000
v -1.460100 -2.620700 1.000000
v -1.303000 -2.702300 1.000000
v -1.141300 -2.774400 1.000000
v -0.975600 -2.836900 1.000000
v -0.806600 -2.889500 1.000000
v -0.634700 -2.932100 1.000000
v -0.460600 -2.964400 1.000000
v -0.285000 -2.986400 1.000000
v -0.108300 -2.998000 1.000000
v 0.068800 -2.999200 1.000000
v 0.245600 -2.989900 1.000000
v 0.421500 -2.970200 1.000000
v 0.596000 -2.940200 1.000000
v 0.768400 -2.899900 1.000000
v 0.938200 -2.849500 1.000000
v 1.104600 -2.789200 1.000000
v 1.267200 -2.719200 1.000000
v 1.425400 -2.639700 1.000000
v 1.578700 -2.551000 1.000000
v 1.726400 -2.453500 1.000000
v 1.868200 -2.347300 1.000000
v 2.003400 -2.233000 1.000000
v 2.131600 -2.111000 1.000000
v 2.252400 -1.981500 1.000000
v 2.365400 -1.845200 1.000000
v 2.470100 -1.702500 1.000000
v 2.566300 -1.553800 1.000000
v 2.653500 -1.399700 1.000000
v 2.731400 -1.240700 1.000000
v 2.799900 -1.077400 1.000000
v 2.858500 -0.910400 1.000000
v 2.907300 -0.740200 1.000000
v 2.945900 -0.567400 1.000000
v 2.974200 -0.392600 1.000000
v 2.992200 -0.216400 1.000000
v 2.999700 -0.039600 1.000000
v 2.862500 0.000000 1.000000
v 2.685400 0.000000 1.000000
v 2.508300 0.000000 1.000000
v 2.331200 0.000000 1.000000
v 2.154200 0.000000 1.000000
v 1.999900 -0.022900 1.000000
v 1.990000 -0.199700 1.000000
v 1.964600 -0.374800 1.000000
v 1.923700 -0.547100 1.000000
v 1.867800 -0.715100 1.000000
v 1.797300 -0.877400 1.000000
v 1.712600 -1.032900 1.000000
s 0
f 1 2 102
f 1 102 101
f 2 3 103
f 2 103 102
f 3 4 104
f 3 104 103
f 4 5 105
f 4 105 104
f 5 6 106
f 5 106 105
f 6 7 107
f 6 107 106
f 7 8 108
f 7 108 107
f 8 9 109
f 8 109 108
f 9 10 110
f 9 110 109
f 10 11 111
f 10 111 110
f 11 12 112
f 11 112 111
f 12 13 113
f 12 113 112
f 13 14 114
f 13 114 113
f 14 15 115
f 14 115 114
f 15 16 116
f 15 116 115
f 16 17 117
f 16 117 116
f 17 18 118
f 17 118 117
f 18 19 119
f 18 119 118
f 19 20 120
f 19 120 119
f 20 21 121
f 20 121 120
f 21 22 122
f 21 122 121
f 22 23 123
f 22 123 122
f 23 24 124
f 23 124 123
f 24 25 125
f 24 125 124
f 25 26 126
f 25 126 125
f 26 27 127
f 26 127 126
f 27 28 128
f 27 128 127
f 28 29 129
f 28 129 128
f 29 30 130
f 29 130 129
f 30 31 131
f 30 131 130
f 31 32 132
f 31 132 131
f 32 33 133
f 32 133 132
f 33 34 134
f 33 134 133
f 34 35 135
f 34 135 134
f 35 36 136
f 35 136 135
f 36 37 137
f 36 137 136
f 37 38 138
f 37 138 137
f 38 39 139
f 38 139 138
f 39 40 140
f 39 140 139
f 40 41 141
f 40 141 140
f 41 42 142
f 41 142 141
f 42 43 143
f 42 143 142
f 43 44 144
f 43 144 143
f 44 45 145
f 44 145 144
f 45 46 146
f 45 146 145
f 46 47 147
f 46 147 146
f 47 48 148
f 47 148 147
f 48 49 149
f 48 149 148
f 49 50 150
f 49 150 149
f 50 51 151
f 50 151 150
f 51 52 152
f 51 152 151
f 52 53 153
f 52 153 152
f 53 54 154
f 53 154 153
f 54 55 155
f 54 155 154
f 55 56 156
f 55 156 155
f 56 57 157
f 56 157 156
f 57 58 158
f 57 158 157
f 58 59 159
f 58 159 158
f 59 60 160
f 59 160 159
f 60 61 161
f 60 161 160
f 61 62 162
f 61 162 161
f 62 63 163
f 62 163 162
f 63 64 164
f 63 164 163
f 64 65 165
f 64 165 164
f 65 66 166
f 65 166 165
f 66 67 167
f 66 167 166
f 67 68 168
f 67 168 167
f 68 69 169
f 68 169 168
f 69 70 170
f 69 170 169
f 70 71 171
f 70 171 170
f 71 72 172
f 71 172 171
f 72 73 173
f 72 173 172
f 73 74 174
f 73 174 173
f 74 75 175
f 74 175 174
f 75 76 176
f 75 176 175
f 76 77 177
f 76 177 176
f 77 78 178
f 77 178 177
f 78 79 179
f 78 179 178
f 79 80 180
f 79 180 179
f 80 81 181
f 80 181 180
f 81 82 182
f 81 182 181
f 82 83 183
f 82 183 182
f 83 84 184
f 83 184 183
f 84 85 185
f 84 185 184
f 85 86 186
f 85 186 185
f 86 87 187
f 86 187 186
f 87 88 188
f 87 188 187
f 88 89 189
f 88 189 188
f 89 90 190
f 89 190 189
f 90 91 191
f 90 191 190
f 91 92 192
f 91 192 191
f 92 93 193
f 92 193 192
f 93 94 194
f 93 194 193
f 94 95 195
f 94 195 194
f 95 96 196
f 95 196 195
f 96 97 197
f 96 197 196
f 97 98 198
f 97 198 197
f 98 99 199
f 98 199 198
f 99 100 200
f 99 200 199
f 100 1 101
f 100 101 200
f 107 108 168
f 15 14 57
f 128 129 130
f 128 130 131
f 127 128 131
f 127 131 132
f 126 127 139
f 127 132 138
f 139 127 138
f 132 133 138
f 125 126 141
f 134 135 136
f 126 139 140
f 133 134 137
f 124 125 142
f 134 136 137
f 137 138 133
f 140 141 126
f 141 142 125
f 142 143 124
f 143 144 124
f 144 145 123
f 123 145 122
f 145 146 122
f 146 147 122
f 122 147 121
f 147 148 121
f 148 149 120
f 149 150 120
f 150 151 119
f 120 150 119
f 151 152 118
f 152 153 118
f 118 153 117
f 153 154 117
f 154 155 116
f 117 154 116
f 155 156 116
f 156 157 115
f 116 156 115
f 157 158 114
f 158 159 114
f 157 114 115
f 159 160 113
f 160 161 112
f 159 113 114
f 161 162 112
f 162 163 111
f 112 162 111
f 163 164 110
f 164 165 110
f 163 110 111
f 165 166 109
f 166 167 108
f 165 109 110
f 167 168 108
f 168 169 107
f 107 169 106
f 169 170 106
f 170 171 106
f 106 171 105
f 171 172 105
f 172 173 104
f 173 174 104
f 174 175 103
f 103 175 102
f 175 176 102
f 176 177 102
f 102 177 101
f 177 178 101
f 178 179 200
f 179 180 200
f 180 181 199
f 200 180 199
f 181 182 198
f 182 183 198
f 181 198 199
f 183 184 197
f 184 185 196
f 196 185 191
f 185 186 191
f 186 187 190
f 187 188 189
f 187 189 190
f 186 190 191
f 178 200 101
f 172 104 105
f 148 120 121
f 123 124 144
f 113 160 112
f 174 103 104
f 184 196 197
f 192 193 195
f 193 194 195
f 191 192 196
f 192 195 196
f 118 119 151
f 197 198 183
f 109 166 108
f 95 94 93
f 95 93 92
f 96 95 92
f 96 92 91
f 97 96 84
f 96 91 85
f 90 89 87
f 89 88 87
f 96 85 84
f 91 90 86
f 85 91 86
f 98 97 83
f 87 86 90
f 84 83 97
f 83 82 98
f 82 81 98
f 98 81 99
f 81 80 99
f 80 79 100
f 79 78 100
f 78 77 1
f 1 77 2
f 77 76 2
f 76 75 2
f 75 74 3
f 74 73 4
f 75 3 2
f 73 72 4
f 72 71 5
f 71 70 6
f 70 69 6
f 71 6 5
f 69 68 7
f 68 67 8
f 69 7 6
f 67 66 8
f 66 65 9
f 8 66 9
f 65 64 10
f 64 63 10
f 65 10 9
f 63 62 11
f 62 61 12
f 63 11 10
f 61 60 12
f 60 59 13
f 12 60 13
f 59 58 14
f 58 57 14
f 59 14 13
f 57 56 15
f 56 55 16
f 55 54 16
f 54 53 17
f 17 53 18
f 53 52 18
f 52 51 18
f 18 51 19
f 51 50 19
f 50 49 20
f 49 48 20
f 48 47 21
f 21 47 22
f 47 46 22
f 46 45 22
f 22 45 23
f 45 44 23
f 44 43 24
f 43 42 24
f 42 41 25
f 24 42 25
f 41 40 26
f 40 39 26
f 41 26 25
f 39 38 27
f 38 37 33
f 37 36 34
f 36 35 34
f 38 33 32
f 44 24 23
f 50 20 19
f 56 16 15
f 72 5 4
f 80 100 99
f 78 1 100
f 7 68 8
f 54 17 16
f 38 32 27
f 37 34 33
f 3 74 4
f 32 31 27
f 31 30 28
f 30 29 28
f 31 28 27
f 27 26 39
f 48 21 20
f 11 62 12
