# Blender 4.3.0
# www.blender.org
o Gear
v 0.550000 0.000000 -0.150000
v 0.531259 0.142350 -0.150000
v 0.476314 0.275000 -0.150000
v 0.388909 0.388909 -0.150000
v 0.650000 0.000000 -0.150000
v 0.627852 0.168232 -0.150000
v 0.562917 0.325000 -0.150000
v 0.459619 0.459619 -0.150000
v 0.676148 0.181173 -0.150000
v 0.606218 0.350000 -0.150000
v 0.494975 0.494975 -0.150000
v 1.078596 0.525957 -0.150000
v 1.039230 0.600000 -0.150000
v 0.994790 0.671113 -0.150000
v 0.550000 -0.000000 0.150000
v 0.531259 0.142350 0.150000
v 0.476314 0.275000 0.150000
v 0.388909 0.388909 0.150000
v 0.650000 -0.000000 0.150000
v 0.627852 0.168232 0.150000
v 0.562917 0.325000 0.150000
v 0.459619 0.459619 0.150000
v 0.676148 0.181173 0.150000
v 0.606218 0.350000 0.150000
v 0.494975 0.494975 0.150000
v 1.078596 0.525957 0.150000
v 1.039230 0.600000 0.150000
v 0.994790 0.671113 0.150000
v 0.275000 0.476314 -0.150000
v 0.142350 0.531259 -0.150000
v 0.000000 0.550000 -0.150000
v -0.142350 0.531259 -0.150000
v 0.325000 0.562917 -0.150000
v 0.168232 0.627852 -0.150000
v 0.000000 0.650000 -0.150000
v -0.168232 0.627852 -0.150000
v 0.181173 0.676148 -0.150000
v 0.000000 0.700000 -0.150000
v -0.181173 0.676148 -0.150000
v 0.083806 1.197070 -0.150000
v 0.000000 1.200000 -0.150000
v -0.083806 1.197070 -0.150000
v 0.275000 0.476314 0.150000
v 0.142350 0.531259 0.150000
v 0.000000 0.550000 0.150000
v -0.142350 0.531259 0.150000
v 0.325000 0.562917 0.150000
v 0.168232 0.627852 0.150000
v 0.000000 0.650000 0.150000
v -0.168232 0.627852 0.150000
v 0.181173 0.676148 0.150000
v 0.000000 0.700000 0.150000
v -0.181173 0.676148 0.150000
v 0.083806 1.197070 0.150000
v 0.000000 1.200000 0.150000
v -0.083806 1.197070 0.150000
v -0.275000 0.476314 -0.150000
v -0.388909 0.388909 -0.150000
v -0.476314 0.275000 -0.150000
v -0.531259 0.142350 -0.150000
v -0.325000 0.562917 -0.150000
v -0.459619 0.459619 -0.150000
v -0.562917 0.325000 -0.150000
v -0.627852 0.168232 -0.150000
v -0.494975 0.494975 -0.150000
v -0.606218 0.350000 -0.150000
v -0.676148 0.181173 -0.150000
v -0.994790 0.671113 -0.150000
v -1.039230 0.600000 -0.150000
v -1.078596 0.525957 -0.150000
v -0.275000 0.476314 0.150000
v -0.388909 0.388909 0.150000
v -0.476314 0.275000 0.150000
v -0.531259 0.142350 0.150000
v -0.325000 0.562917 0.150000
v -0.459619 0.459619 0.150000
v -0.562917 0.325000 0.150000
v -0.627852 0.168232 0.150000
v -0.494975 0.494975 0.150000
v -0.606218 0.350000 0.150000
v -0.676148 0.181173 0.150000
v -0.994790 0.671113 0.150000
v -1.039230 0.600000 0.150000
v -1.078596 0.525957 0.150000
v -0.550000 0.000000 -0.150000
v -0.531259 -0.142350 -0.150000
v -0.476314 -0.275000 -0.150000
v -0.388909 -0.388909 -0.150000
v -0.650000 0.000000 -0.150000
v -0.627852 -0.168232 -0.150000
v -0.562917 -0.325000 -0.150000
v -0.459619 -0.459619 -0.150000
v -0.676148 -0.181173 -0.150000
v -0.606218 -0.350000 -0.150000
v -0.494975 -0.494975 -0.150000
v -1.078596 -0.525957 -0.150000
v -1.039230 -0.600000 -0.150000
v -0.994790 -0.671113 -0.150000
v -0.550000 -0.000000 0.150000
v -0.531259 -0.142350 0.150000
v -0.476314 -0.275000 0.150000
v -0.388909 -0.388909 0.150000
v -0.650000 -0.000000 0.150000
v -0.627852 -0.168232 0.150000
v -0.562917 -0.325000 0.150000
v -0.459619 -0.459619 0.150000
v -0.676148 -0.181173 0.150000
v -0.606218 -0.350000 0.150000
v -0.494975 -0.494975 0.150000
v -1.078596 -0.525957 0.150000
v -1.039230 -0.600000 0.150000
v -0.994790 -0.671113 0.150000
v -0.275000 -0.476314 -0.150000
v -0.142350 -0.531259 -0.150000
v -0.000000 -0.550000 -0.150000
v 0.142350 -0.531259 -0.150000
v -0.325000 -0.562917 -0.150000
v -0.168232 -0.627852 -0.150000
v -0.000000 -0.650000 -0.150000
v 0.168232 -0.627852 -0.150000
v -0.181173 -0.676148 -0.150000
v -0.000000 -0.700000 -0.150000
v 0.181173 -0.676148 -0.150000
v -0.083806 -1.197070 -0.150000
v -0.000000 -1.200000 -0.150000
v 0.083806 -1.197070 -0.150000
v -0.275000 -0.476314 0.150000
v -0.142350 -0.531259 0.150000
v -0.000000 -0.550000 0.150000
v 0.142350 -0.531259 0.150000
v -0.325000 -0.562917 0.150000
v -0.168232 -0.627852 0.150000
v -0.000000 -0.650000 0.150000
v 0.168232 -0.627852 0.150000
v -0.181173 -0.676148 0.150000
v -0.000000 -0.700000 0.150000
v 0.181173 -0.676148 0.150000
v -0.083806 -1.197070 0.150000
v -0.000000 -1.200000 0.150000
v 0.083806 -1.197070 0.150000
v 0.275000 -0.476314 -0.150000
v 0.388909 -0.388909 -0.150000
v 0.476314 -0.275000 -0.150000
v 0.531259 -0.142350 -0.150000
v 0.325000 -0.562917 -0.150000
v 0.459619 -0.459619 -0.150000
v 0.562917 -0.325000 -0.150000
v 0.627852 -0.168232 -0.150000
v 0.494975 -0.494975 -0.150000
v 0.606218 -0.350000 -0.150000
v 0.676148 -0.181173 -0.150000
v 0.994790 -0.671113 -0.150000
v 1.039230 -0.600000 -0.150000
v 1.078596 -0.525957 -0.150000
v 0.275000 -0.476314 0.150000
v 0.388909 -0.388909 0.150000
v 0.476314 -0.275000 0.150000
v 0.531259 -0.142350 0.150000
v 0.325000 -0.562917 0.150000
v 0.459619 -0.459619 0.150000
v 0.562917 -0.325000 0.150000
v 0.627852 -0.168232 0.150000
v 0.494975 -0.494975 0.150000
v 0.606218 -0.350000 0.150000
v 0.676148 -0.181173 0.150000
v 0.994790 -0.671113 0.150000
v 1.039230 -0.600000 0.150000
v 1.078596 -0.525957 0.150000
s 0
f 5 1 2 6
f 6 2 3 7
f 7 3 4 8
f 9 6 7 10
f 10 7 8 11
f 12 9 10 13
f 13 10 11 14
f 15 19 20 16
f 16 20 21 17
f 17 21 22 18
f 20 23 24 21
f 21 24 25 22
f 23 26 27 24
f 24 27 28 25
f 19 5 6 20
f 20 6 9 23
f 23 9 12 26
f 26 12 13 27
f 27 13 14 28
f 28 14 11 25
f 25 11 8 22
f 33 29 30 34
f 34 30 31 35
f 35 31 32 36
f 37 34 35 38
f 38 35 36 39
f 40 37 38 41
f 41 38 39 42
f 43 47 48 44
f 44 48 49 45
f 45 49 50 46
f 48 51 52 49
f 49 52 53 50
f 51 54 55 52
f 52 55 56 53
f 47 33 34 48
f 48 34 37 51
f 51 37 40 54
f 54 40 41 55
f 55 41 42 56
f 56 42 39 53
f 53 39 36 50
f 4 29 33 8
f 8 33 47 22
f 22 47 43 18
f 61 57 58 62
f 62 58 59 63
f 63 59 60 64
f 65 62 63 66
f 66 63 64 67
f 68 65 66 69
f 69 66 67 70
f 71 75 76 72
f 72 76 77 73
f 73 77 78 74
f 76 79 80 77
f 77 80 81 78
f 79 82 83 80
f 80 83 84 81
f 75 61 62 76
f 76 62 65 79
f 79 65 68 82
f 82 68 69 83
f 83 69 70 84
f 84 70 67 81
f 81 67 64 78
f 32 57 61 36
f 36 61 75 50
f 50 75 71 46
f 89 85 86 90
f 90 86 87 91
f 91 87 88 92
f 93 90 91 94
f 94 91 92 95
f 96 93 94 97
f 97 94 95 98
f 99 103 104 100
f 100 104 105 101
f 101 105 106 102
f 104 107 108 105
f 105 108 109 106
f 107 110 111 108
f 108 111 112 109
f 103 89 90 104
f 104 90 93 107
f 107 93 96 110
f 110 96 97 111
f 111 97 98 112
f 112 98 95 109
f 109 95 92 106
f 60 85 89 64
f 64 89 103 78
f 78 103 99 74
f 117 113 114 118
f 118 114 115 119
f 119 115 116 120
f 121 118 119 122
f 122 119 120 123
f 124 121 122 125
f 125 122 123 126
f 127 131 132 128
f 128 132 133 129
f 129 133 134 130
f 132 135 136 133
f 133 136 137 134
f 135 138 139 136
f 136 139 140 137
f 131 117 118 132
f 132 118 121 135
f 135 121 124 138
f 138 124 125 139
f 139 125 126 140
f 140 126 123 137
f 137 123 120 134
f 88 113 117 92
f 92 117 131 106
f 106 131 127 102
f 145 141 142 146
f 146 142 143 147
f 147 143 144 148
f 149 146 147 150
f 150 147 148 151
f 152 149 150 153
f 153 150 151 154
f 155 159 160 156
f 156 160 161 157
f 157 161 162 158
f 160 163 164 161
f 161 164 165 162
f 163 166 167 164
f 164 167 168 165
f 159 145 146 160
f 160 146 149 163
f 163 149 152 166
f 166 152 153 167
f 167 153 154 168
f 168 154 151 165
f 165 151 148 162
f 116 141 145 120
f 120 145 159 134
f 134 159 155 130
f 144 1 5 148
f 148 5 19 162
f 162 19 15 158
f 15 16 17 18 43 44 45 46 71 72 73 74 99 100 101 102 127 128 129 130 155 156 157 158
f 1 144 143 142 141 116 115 114 113 88 87 86 85 60 59 58 57 32 31 30 29 4 3 2
